<svg xmlns="http://www.w3.org/2000/svg" xmlns:xlink="http://www.w3.org/1999/xlink" width="517" zoomAndPan="magnify" viewBox="0 0 387.75 470.25" height="627" preserveAspectRatio="xMidYMid meet" version="1.0"><defs><filter x="0%" y="0%" width="100%" height="100%" id="5bfcee8fb0"><feColorMatrix values="0 0 0 0 1 0 0 0 0 1 0 0 0 0 1 0 0 0 1 0" color-interpolation-filters="sRGB"/></filter><mask id="a0c32075a8"><g filter="url(#5bfcee8fb0)"><rect x="-38.775" width="465.3" fill="#000000" y="-47.025" height="564.3" fill-opacity="0.4"/></g></mask><clipPath id="e299bb63a9"><path d="M 1 1 L 239.230469 1 L 239.230469 42 L 1 42 Z M 1 1 " clip-rule="nonzero"/></clipPath><clipPath id="c8cc5db6da"><rect x="0" width="240" y="0" height="43"/></clipPath><clipPath id="1e2c7ffce5"><path d="M 152.222656 265.359375 L 263.453125 265.359375 L 263.453125 367 L 152.222656 367 Z M 152.222656 265.359375 " clip-rule="nonzero"/></clipPath></defs><g mask="url(#a0c32075a8)"><g transform="matrix(1, 0, 0, 1, 83, 387)"><g clip-path="url(#c8cc5db6da)"><g clip-path="url(#e299bb63a9)"><path fill="#000000" d="M 120.054688 1.394531 C 185.734375 1.394531 239.0625 10.398438 239.0625 21.488281 C 239.0625 32.578125 185.734375 41.582031 120.054688 41.582031 C 54.375 41.582031 1.046875 32.578125 1.046875 21.488281 C 1.046875 10.398438 54.375 1.394531 120.054688 1.394531 Z M 120.054688 1.394531 " fill-opacity="1" fill-rule="nonzero"/></g></g></g></g><path fill="#1faf55" d="M 306.164062 283.980469 C 306.164062 283.980469 306.164062 361.539062 306.164062 361.539062 C 306.164062 388.863281 281.644531 411.046875 251.445312 411.046875 C 251.445312 411.046875 165.722656 411.046875 165.722656 411.046875 C 135.527344 411.046875 111.007812 388.863281 111.007812 361.539062 C 111.007812 361.539062 111.007812 283.980469 111.007812 283.980469 C 111.007812 256.660156 135.527344 234.476562 165.722656 234.476562 C 165.722656 234.476562 251.445312 234.476562 251.445312 234.476562 C 281.644531 234.476562 306.164062 256.660156 306.164062 283.980469 Z M 306.164062 283.980469 " fill-opacity="1" fill-rule="nonzero"/><path fill="#33cb6c" d="M 300.195312 273.007812 C 300.195312 273.007812 300.195312 360.578125 300.195312 360.578125 C 300.195312 385.136719 278.15625 405.078125 251.011719 405.078125 C 251.011719 405.078125 154.222656 405.078125 154.222656 405.078125 C 127.078125 405.078125 105.039062 385.136719 105.039062 360.578125 C 105.039062 360.578125 105.039062 273.007812 105.039062 273.007812 C 105.039062 248.449219 127.078125 228.507812 154.222656 228.507812 C 154.222656 228.507812 251.011719 228.507812 251.011719 228.507812 C 278.15625 228.507812 300.195312 248.449219 300.195312 273.007812 Z M 300.195312 273.007812 " fill-opacity="1" fill-rule="nonzero"/><g clip-path="url(#1e2c7ffce5)"><path fill="#ffffff" d="M 183.554688 348.941406 C 183.554688 348.941406 185.433594 349.964844 185.433594 349.964844 C 204.84375 360.449219 229.851562 356.1875 243.707031 340.027344 C 257.566406 323.867188 255.917969 300.890625 239.867188 286.488281 C 223.8125 272.085938 198.40625 270.78125 180.660156 283.453125 C 162.914062 296.125 158.410156 318.785156 170.160156 336.257812 C 170.160156 336.257812 171.320312 337.972656 171.320312 337.972656 C 171.320312 337.972656 166.949219 352.996094 166.949219 352.996094 C 166.949219 352.996094 183.554688 348.941406 183.554688 348.941406 Z M 152.222656 366.277344 C 152.222656 366.277344 160.195312 339.347656 160.195312 339.347656 C 146.90625 317.664062 153.257812 290.441406 175.097656 275.46875 C 196.9375 260.496094 227.621094 262.332031 247.09375 279.773438 C 266.566406 297.21875 268.902344 324.960938 252.574219 344.867188 C 236.25 364.777344 206.222656 370.796875 182.128906 358.992188 C 182.128906 358.992188 152.222656 366.277344 152.222656 366.277344 Z M 152.222656 366.277344 " fill-opacity="1" fill-rule="nonzero"/></g><path fill="#ffffff" d="M 228.671875 322.28125 C 226.417969 321.0625 223.472656 319.6875 220.839844 320.679688 C 218.804688 321.429688 217.488281 324.320312 216.140625 325.808594 C 215.546875 326.519531 214.46875 326.730469 213.601562 326.304688 C 206.136719 323.652344 199.875 318.800781 195.835938 312.527344 C 195.113281 311.714844 195.222656 310.527344 196.085938 309.835938 C 197.597656 308.53125 198.710938 306.894531 199.316406 305.085938 C 199.4375 303.109375 198.933594 301.144531 197.859375 299.417969 C 196.792969 297.335938 195.601562 294.359375 193.285156 293.179688 C 191.015625 292.226562 188.335938 292.582031 186.46875 294.089844 C 183.296875 296.570312 181.535156 300.21875 181.675781 304.011719 C 181.6875 305.070312 181.832031 306.125 182.097656 307.15625 C 182.835938 309.609375 183.960938 311.953125 185.433594 314.117188 C 186.515625 315.761719 187.675781 317.363281 188.929688 318.90625 C 193.003906 324.003906 198.132812 328.335938 204.03125 331.664062 C 206.988281 333.328125 210.140625 334.6875 213.429688 335.71875 C 217.113281 336.808594 220.402344 337.957031 224.398438 337.277344 C 228.730469 336.671875 232.453125 334.167969 234.34375 330.585938 C 234.875 329.515625 235.03125 328.324219 234.800781 327.171875 C 234.296875 324.816406 230.773438 323.414062 228.671875 322.28125 Z M 228.671875 322.28125 " fill-opacity="1" fill-rule="nonzero"/></svg>